<svg width="64" height="64" viewBox="0 0 64 64" fill="none" xmlns="http://www.w3.org/2000/svg">
  <path d="M48 12H16C13.7909 12 12 13.7909 12 16V48C12 50.2091 13.7909 52 16 52H48C50.2091 52 52 50.2091 52 48V16C52 13.7909 50.2091 12 48 12Z" 
    stroke="#2563EB" stroke-width="4" stroke-linecap="round" stroke-linejoin="round"
    class="transition-all duration-300 group-hover:stroke-primary-focus"/>
  <path d="M32 20L36 28L44 29.6667L38.4 36L39.6 44L32 40.3333L24.4 44L25.6 36L20 29.6667L28 28L32 20Z" 
    stroke="#2563EB" stroke-width="4" stroke-linecap="round" stroke-linejoin="round"
    class="animate-pulse"/>
  <path d="M24 44L22 52M40 44L42 52" 
    stroke="#2563EB" stroke-width="4" stroke-linecap="round" stroke-linejoin="round"
    class="origin-top transition-all duration-300 group-hover:scale-y-110"/>
</svg>