<svg width="64" height="64" viewBox="0 0 64 64" fill="none" xmlns="http://www.w3.org/2000/svg">
  <path d="M32 56C45.2548 56 56 45.2548 56 32C56 18.7452 45.2548 8 32 8C18.7452 8 8 18.7452 8 32C8 37.8484 10.0049 43.2268 13.4088 47.5192L10.1056 53.8944L16.4808 50.5912C20.7732 53.9951 26.1516 56 32 56Z" 
    stroke="#2563EB" stroke-width="4" stroke-linecap="round" stroke-linejoin="round"
    class="transition-all duration-300 group-hover:stroke-primary-focus"/>
  <path d="M32 38V36C35.3137 36 38 33.3137 38 30C38 26.6863 35.3137 24 32 24C28.6863 24 26 26.6863 26 30" 
    stroke="#2563EB" stroke-width="4" stroke-linecap="round" stroke-linejoin="round"
    class="origin-center transition-all duration-300 group-hover:rotate-12"/>
  <circle cx="32" cy="44" r="2" fill="#2563EB" class="animate-bounce"/>
</svg> 