<svg width="100%" height="100%" viewBox="0 0 1920 1080" xmlns="http://www.w3.org/2000/svg">
  <defs>
    <pattern id="smallGrid" width="60" height="60" patternUnits="userSpaceOnUse">
      <path d="M 60 0 L 0 0 0 60" fill="none" stroke="#f0f0f0" stroke-width="1"/>
    </pattern>
    <pattern id="grid" width="180" height="180" patternUnits="userSpaceOnUse">
      <rect width="180" height="180" fill="url(#smallGrid)"/>
      <path d="M 180 0 L 0 0 0 180" fill="none" stroke="#e0e0e0" stroke-width="1.5"/>
    </pattern>
  </defs>
  
  <!-- Background -->
  <rect width="100%" height="100%" fill="white"/>
  <rect width="100%" height="100%" fill="url(#grid)"/>
  
  <!-- Abstract Shapes -->
  <path d="M0,400 Q480,300 960,400 T1920,400" fill="none" stroke="#2a2a2a" stroke-width="1.5" opacity="0.1"/>
  <path d="M0,600 Q480,500 960,600 T1920,600" fill="none" stroke="#2a2a2a" stroke-width="1.5" opacity="0.1"/>
  
  <!-- Minimal Geometric Elements -->
  <circle cx="200" cy="200" r="50" fill="none" stroke="#404040" stroke-width="2" opacity="0.15"/>
  <circle cx="1720" cy="880" r="80" fill="none" stroke="#404040" stroke-width="2" opacity="0.15"/>
  
  <rect x="400" y="700" width="100" height="100" fill="none" stroke="#404040" stroke-width="2" opacity="0.1" transform="rotate(45 450 750)"/>
  <rect x="1500" y="300" width="60" height="60" fill="none" stroke="#404040" stroke-width="2" opacity="0.1" transform="rotate(45 1530 330)"/>
</svg> 